<svg version="1.2" xmlns="http://www.w3.org/2000/svg" viewBox="0 0 722 306" width="400" height="170"><style>.a{fill:#c01d2e}.b{fill:#2e3092}</style><path class="a" d="m245 236.8q-1.6 3.6-4.9 5.7-3.2 2.1-7.3 2.1-5.6 0-9.6-3.8-3.9-3.8-3.9-9.2 0-5.5 3.9-9.3 4-3.8 9.6-3.8 4 0 7.3 2.2 3.2 2.1 4.9 5.9h-3.4q-1.4-2.5-3.7-3.8-2.4-1.4-5.1-1.4-4.3 0-7.3 2.9-3 3-3 7.3 0 4.2 3 7.2 3 2.9 7.3 2.9 2.8 0 5.1-1.3 2.4-1.3 3.7-3.6z"/><path class="a" d="m254.3 219.1h1.5 1.6v3.6q0.4-0.9 1-1.6 1.9-2.5 6.1-2.6v3.3q-3.1 0.3-5 2.1-2.1 2.1-2.1 5.9v14.2h-1.5-1.6z"/><path fill-rule="evenodd" class="a" d="m284.1 244.6q-5.4 0-9.2-3.8-3.7-3.8-3.7-9.2 0-5.5 3.7-9.3 3.8-3.8 9.2-3.8 5.4 0 9.2 3.8 3.7 3.8 3.7 9.3 0.1 0.6 0 1.2h-22.6q0.3 3.4 2.8 6 2.9 3 7 3 2.9 0 5.2-1.5 2.2-1.5 3.6-4.4h3.3q-1.4 3.9-4.7 6.3-3.4 2.4-7.5 2.4zm9.6-14.7q-0.4-3.2-2.7-5.6-2.8-2.9-6.9-2.9-4.1 0-6.9 2.9-2.2 2.4-2.8 5.6z"/><path fill-rule="evenodd" class="a" d="m318.4 244.6q-5.5 0-9.3-3.8-3.8-3.8-3.8-9.2 0-5.5 3.8-9.3 3.8-3.8 9.3-3.8 5.5 0 9.2 3.8l0.8 1v-4.2h3.2v24.9h-3.2v-4.2q-0.4 0.6-0.8 1-3.7 3.8-9.2 3.8zm0.1-23.2q-4.2 0-7.1 2.9-2.9 3-2.9 7.3 0 4.3 2.9 7.3 2.9 2.9 7.1 2.9 4.2 0 7.1-2.9 3-3 3-7.3 0-4.3-3-7.3-2.9-2.9-7.1-2.9z"/><path class="a" d="m344.8 244v-22h-5.3v-2.9h5.3v-8.7h3.2v8.7h5.9v2.9h-5.9v22z"/><path class="a" d="m384.9 252.8h-1.5-1.6l4.3-9.9-9.7-23.8h1.8 1.7l7.8 19.9 8.4-19.9h1.7 1.7z"/><path fill-rule="evenodd" class="a" d="m410.2 240.8q-3.7-3.8-3.7-9.2 0-5.5 3.7-9.3 3.8-3.8 9.3-3.8 5.4 0 9.2 3.8 3.8 3.8 3.8 9.3 0 5.4-3.8 9.2-3.8 3.8-9.2 3.8-5.5 0-9.3-3.8zm16.2-2q2.9-3 2.9-7.2 0-4.3-2.9-7.3-2.8-2.9-6.9-2.9-4.2 0-7 2.9-2.8 3-2.8 7.3 0 4.2 2.8 7.2 2.8 2.9 7 2.9 4.1 0 6.9-2.9z"/><path class="a" d="m444.8 233.9q0 3.7 2 5.8 1.9 2 5.4 2 3.8 0 5.9-2.4 2.1-2.5 2.1-7v-13.2h1.5 1.6v24.9h-1.4-1.6v-4q-0.3 0.7-0.8 1.3-2.6 3.3-7.2 3.3-5 0-7.9-2.9-2.8-2.8-2.8-7.8v-14.8h1.6 1.6z"/><path class="a" d="m473.8 219.1h1.6 1.6v3.6q0.4-0.9 0.9-1.6 2-2.5 6.2-2.6v3.3q-3.2 0.3-5.1 2.1-2 2.1-2 5.9v14.2h-1.6-1.6z"/><path class="a" d="m508.9 219.1h1.6 1.6v3.6q0.4-0.9 0.9-1.6 2-2.5 6.2-2.6v3.3q-3.2 0.3-5 2.1-2.1 2.1-2.1 5.9v14.2h-1.6-1.6z"/><path fill-rule="evenodd" class="a" d="m538.8 244.6q-5.5 0-9.2-3.8-3.8-3.8-3.8-9.2 0-5.5 3.8-9.3 3.7-3.8 9.2-3.8 5.4 0 9.2 3.8 3.7 3.8 3.7 9.3 0 0.6-0.1 1.2h-22.5q0.3 3.4 2.8 6 2.8 3 7 3 2.9 0 5.2-1.5 2.2-1.5 3.5-4.4h3.3q-1.3 3.9-4.6 6.3-3.4 2.4-7.5 2.4zm9.6-14.7q-0.5-3.2-2.7-5.6-2.8-2.9-6.9-2.9-4.1 0-7 2.9-2.2 2.4-2.7 5.6z"/><path class="a" d="m570.5 225.3q0.1-1.7-1-2.8-1-1.1-2.7-1.1-1.7 0-2.7 1-1 1-1 2.8 0 1.5 1 2.4 1 0.9 3.5 1.7 3.7 1.2 5.4 3.1 1.6 1.9 1.6 4.9 0 3.1-2.2 5.2-2.2 2.1-5.5 2.1-3.6 0-5.7-2.2-2-2.1-2-5.8h3.2q-0.1 2.4 1.1 3.8 1.2 1.3 3.4 1.3 2 0 3.3-1.1 1.2-1.2 1.2-3.1 0-2-1.2-3.2-1.2-1.1-4-2.1-3.4-1.1-4.9-2.7-1.5-1.5-1.5-4.1 0-2.9 2-4.9 2-2 5-2 3.1 0 5 1.9 1.9 1.9 1.9 4.9z"/><path class="a" d="m583.2 219.1h1.5 1.6v2.6l0.3-0.3q2.4-2.9 6.6-2.9 4.6 0 7.3 2.9 0.7 0.8 1.3 1.8 0.5-1 1.1-1.8 2.5-2.9 6.8-2.9 4.7 0 7.4 2.9 2.7 3 2.7 8.2v14.4h-1.6-1.6v-14.7q0-3.7-1.8-5.8-1.8-2.1-4.9-2.1-3.3 0-5.1 2.1-1.7 2.1-1.7 5.9v14.6h-1.6-1.6v-14.7q0-3.7-1.8-5.8-1.8-2.1-5-2.1-3.2 0-5 2.1-1.7 2.1-1.7 5.9v14.6h-1.6-1.6z"/><path class="a" d="m633.2 233.9q0 3.7 2 5.8 2 2 5.5 2 3.8 0 5.8-2.4 2.1-2.5 2.1-7v-13.2h1.6 1.6v24.9h-1.5-1.5v-4q-0.4 0.7-0.9 1.3-2.6 3.3-7.1 3.3-5.1 0-7.9-2.9-2.9-2.8-2.9-7.8v-14.8h1.6 1.6z"/><path fill-rule="evenodd" class="a" d="m674 244.6q-5.5 0-9.2-3.8-3.8-3.8-3.8-9.2 0-5.5 3.8-9.3 3.7-3.8 9.2-3.8 5.4 0 9.2 3.8 3.7 3.8 3.7 9.3 0 0.6-0.1 1.2h-22.5q0.3 3.4 2.8 6 2.8 3 7 3 2.9 0 5.1-1.5 2.3-1.5 3.6-4.4h3.3q-1.3 3.9-4.6 6.3-3.4 2.4-7.5 2.4zm9.6-14.7q-0.5-3.2-2.7-5.6-2.8-2.9-6.9-2.9-4.1 0-7 2.9-2.2 2.4-2.7 5.6z"/><path class="a" d="m171.7 234.1c-18.5 21.9-46.7 32.1-71.9 24.9-27.2-7.7-39.8-32-41.4-35.4-4.7-9.3-7.2-19.8-7.2-30.9 0-12.4 3.1-24.1 8.8-34.4 4.4 2.2 9.1 3.8 14.2 4.8 6.1 1.2 12.4 1.9 18.8 2.2q-2.3 2.3-4.2 5c-9.3 13.2-7.7 33.7 1.6 46.7 11.6 16.2 32.8 18.2 42 19 7.1 0.7 18.4 0.5 27.7-0.2 4.9-0.3 8.8-1.3 11.6-1.7z"/><path class="b" d="m183.2 158.7c9 21.7 5.9 42.3-7.9 60.8-3.6-10-5.6-20.4-10.7-29-9.8-16.6-24.3-26.1-44.9-25.4-8.8 0.3-17.8 0.6-26.7 0.2-6.4-0.3-12.7-1-18.8-2.2-5.1-1-9.8-2.6-14.2-4.8-22.6-10.9-35.1-35.5-31.7-63 3.5-28.9 29.2-51.6 59.4-51.8 34.9-0.2 69.7 0 104.6 0q0.9 1.3 1.9 2.7c-13.3 12.8-26.4 25.8-40 38.2-2.2 2.1-6.5 2.7-9.9 2.7-17.1 0.3-34.2 0.1-51.2 0.2-13.7 0.1-21.1 5.9-21.4 16.5-0.3 11.1 7.3 17.4 21.4 17.5 13.4 0.2 26.9-0.7 40.3 0.5 23.7 2.2 40.7 15.1 49.8 36.9z"/><path class="b" d="m250.2 150.8q-1.7-1.9-4.4-2.9-2.7-1-5.1-1-1.4 0-3 0.4-1.5 0.3-2.8 1.1-1.3 0.7-2.2 1.9-0.8 1.1-0.8 2.8 0 2.8 2 4.2 2.1 1.4 5.1 2.4 3 1 6.6 2 3.5 1 6.6 2.8 3 1.9 5 5 2.1 3.2 2.1 8.3 0 5-1.9 8.7-1.9 3.7-5 6.1-3.2 2.4-7.3 3.6-4.2 1.2-8.8 1.2-5.8 0-10.8-1.8-5-1.7-9.2-5.7l9.3-10.3q2 2.7 5.1 4.2 3.1 1.4 6.4 1.4 1.6 0 3.2-0.3 1.6-0.3 2.9-1.1 1.3-0.8 2.1-2 0.8-1.1 0.8-2.7 0-2.8-2-4.3-2.1-1.6-5.2-2.7-3-1-6.7-2.1-3.7-1.1-6.7-3-3.1-1.9-5.2-4.9-2-2.9-2-8 0-4.8 1.8-8.4 1.9-3.6 5.1-6 3.2-2.4 7.3-3.6 4-1.3 8.5-1.3 5.2 0 9.8 1.4 4.6 1.5 8.4 4.8z"/><path class="b" d="m280.6 148h-17.1v-11.7h47.1v11.7h-16.9v47.9h-13.1z"/><path class="b" d="m331.9 170.5l-22.4-34.2h16.3l12.7 22.3 13.3-22.3h15.7l-22.5 34.2v25.4h-13.1z"/><path class="b" d="m372.4 136.3h13v47.5h24.4v12.1h-37.4z"/><path class="b" d="m417.6 136.3h40.5v12.1h-27.4v11.1h25.8v12.1h-25.8v12.2h28.9v12.1h-42z"/><path class="b" d="m469.8 136.3h13.1v59.6h-13.1z"/><path class="b" d="m494.9 136.3h17.9l25.3 41.4h0.2v-41.4h13.1v59.6h-17.1l-26.1-42.4h-0.1v42.4h-13.2z"/><path class="b" d="m624.2 151.7q-4.1-4.8-11.3-4.8-3.8 0-6.9 1.5-3.1 1.4-5.4 4-2.3 2.5-3.6 6-1.3 3.5-1.3 7.7 0 4.2 1.3 7.7 1.3 3.6 3.5 6.1 2.2 2.5 5.3 3.9 3.1 1.4 6.7 1.4 4 0 7.1-1.6 3.2-1.7 5.2-4.7l11 8.2q-3.8 5.3-9.6 7.8-5.8 2.5-12 2.5-7 0-12.9-2.2-5.9-2.2-10.2-6.2-4.2-4.1-6.6-9.9-2.4-5.8-2.4-13 0-7.2 2.4-12.9 2.4-5.8 6.6-9.9 4.3-4.1 10.2-6.3 5.9-2.2 12.9-2.2 2.5 0 5.2 0.5 2.8 0.4 5.5 1.5 2.7 1 5.1 2.6 2.4 1.7 4.3 4.1z"/><path class="b" d="m636.9 136.3h15l14.8 39h0.2l15-39h13.9l-24.6 59.6h-10.4z"/></svg>